<svg xmlns="http://www.w3.org/2000/svg" fill-rule="evenodd" viewBox="0 0 100 100">
    <path d="M50 49.5c-20.9 0-37.9 17-37.9 37.9 0 .8.7 1.5 1.5 1.5h19.9c3.3 5.5 9.3 9.3 16.1 9.3s12.9-3.7 16.1-9.3h20.6c.8 0 1.5-.7 1.5-1.5.1-20.9-16.9-37.9-37.8-37.9zM15.2 85.9c.5-11.6 6.6-21.7 15.7-27.7v21.2c0 2.3.4 4.4 1.2 6.5H15.2zm34.4 9.2c-8.7 0-15.7-7.1-15.7-15.7v-23c4.8-2.5 10.3-4 16.1-4 5.5 0 10.7 1.3 15.4 3.6v23.3c0 2.6-.6 5-1.7 7.1-.1.1-.1.2-.2.3-2.7 5.1-7.9 8.4-13.9 8.4zm17.6-9.2c.7-2 1.2-4.2 1.2-6.5V57.7c9.5 5.9 16 16.3 16.5 28.1H67.2zM49.4 45.4c12 0 21.8-9.8 21.8-21.8 0-.5 0-1-.1-1.5h8.5c.8 0 1.5-.7 1.5-1.5s-.7-1.5-1.5-1.5h-8.9C68.6 9.3 59.8 1.9 49.4 1.9c-12 0-21.8 9.8-21.8 21.8 0 11.9 9.8 21.7 21.8 21.7zm0-40.5c8.8 0 16.2 6.1 18.2 14.3H31.2c2-8.2 9.4-14.3 18.2-14.3zM30.7 22.2H68c0 .5.1 1 .1 1.5 0 10.3-8.4 18.8-18.8 18.8S30.6 34 30.6 23.6c0-.5 0-1 .1-1.4z"/>
</svg>
